<svg xmlns="http://www.w3.org/2000/svg" width="56" height="18" fill="none" viewBox="0 0 56 18">
    <path fill="#141E6B" fill-rule="evenodd" d="M39.59 4.492l.644-3.734S38.247 0 36.176 0c-2.238 0-7.555.982-7.555 5.757 0 2.604 2.098 3.718 3.86 4.653 1.278.678 2.38 1.263 2.38 2.255 0 2.36-5.597 1.937-7.444.449l-.67 3.904S28.76 18 31.838 18c3.079 0 7.723-1.6 7.723-5.954 0-2.724-2.286-3.96-4.103-4.942-1.198-.647-2.192-1.184-2.192-1.965 0-1.967 4.394-1.714 6.324-.647zM51.143 17.7h4.143L51.674.31h-3.626c-1.675 0-2.083 1.296-2.083 1.296L39.237 17.7h4.703l.94-2.583h5.735l.529 2.583zM11.36 12.271l4.3-11.96h4.856L13.339 17.7h-4.7L4.718 2.592C2.174 1.059 0 .605 0 .605L.083.31h7.11c1.957 0 2.14 1.566 2.14 1.566l1.518 7.82.509 2.575zm8.096 5.429h4.51L26.787.31h-4.51l-2.82 17.39zM48.55 5.041l-2.37 6.508h3.703L48.55 5.04z" clip-rule="evenodd"/>
</svg>
