<svg xmlns="http://www.w3.org/2000/svg" width="47" height="36" fill="none" viewBox="0 0 47 36">
    <path fill="#1B1B1B" fill-rule="evenodd" d="M43.727 30.273v5.285h-.82V35.1c-.26.34-.655.553-1.191.553-1.057 0-1.886-.829-1.886-1.98 0-1.15.83-1.98 1.886-1.98.536 0 .93.213 1.19.553v-1.973h.82zm-30.75 1.514v3.771h-.82V35.1c-.26.34-.654.553-1.19.553-1.057 0-1.885-.829-1.885-1.98 0-1.15.829-1.98 1.885-1.98.536 0 .93.213 1.19.553v-.46h.82zm-3.051 1.885c0-.662.434-1.207 1.143-1.207.678 0 1.136.521 1.136 1.207s-.458 1.207-1.136 1.207c-.71 0-1.143-.544-1.143-1.207zm35.437 1.452c-.072-.07-.169-.11-.27-.11l.001-.004c-.052 0-.103.01-.15.03-.046.018-.088.046-.123.08-.034.035-.062.075-.08.12-.04.093-.04.197 0 .29.018.046.045.088.08.123s.076.062.121.08c.048.02.1.031.151.03.051 0 .102-.01.149-.03.045-.019.086-.046.12-.08.035-.034.063-.074.082-.119.04-.093.04-.198 0-.29-.019-.045-.046-.086-.081-.12zm-.27.554c.039 0 .077-.008.113-.023.034-.015.065-.036.092-.062.026-.027.047-.058.062-.092.03-.073.03-.155 0-.227-.015-.035-.036-.066-.062-.092-.027-.027-.058-.048-.092-.063-.036-.014-.074-.022-.113-.021-.04 0-.078.007-.115.021-.035.015-.067.036-.094.063-.083.085-.107.211-.061.321.014.035.035.066.061.092.027.027.06.048.094.062.036.016.076.024.115.023v-.002zm.126-.438c-.03-.021-.066-.032-.103-.03h.001-.16v.348h.073v-.104h.056l.084.104h.089l-.096-.11c.009-.003.017-.009.026-.016.005-.006.01-.014.012-.022.01-.005.017-.01.025-.017.02-.019.03-.045.029-.072.002-.03-.012-.061-.036-.08zm-.018.17c-.017.01-.037.016-.057.017l.019.022c-.01.004-.02.006-.03.005h-.047l-.021-.026h-.035v.026-.18h.103c.02 0 .039.007.055.023.014.015.022.04.021.067 0 .016-.002.032-.008.046zm-4.527-1.738c0-.662.434-1.207 1.144-1.207.679 0 1.135.521 1.135 1.207s-.456 1.207-1.135 1.207c-.71 0-1.144-.544-1.144-1.207zm-17.523-1.245c.528 0 .867.33.954.914H22.15c.088-.544.418-.915 1.002-.915zM21.29 33.67c0-1.176.773-1.98 1.878-1.98 1.054 0 1.78.805 1.79 1.98 0 .108-.009.21-.017.31v.005h-2.8c.12.679.6.923 1.128.923.379 0 .781-.142 1.097-.394l.402.607c-.458.387-.978.529-1.546.529-1.128 0-1.932-.781-1.932-1.98zm11.774 0c0-.663.434-1.207 1.143-1.207.678 0 1.136.52 1.136 1.207 0 .686-.458 1.207-1.136 1.207-.71 0-1.144-.545-1.144-1.207zm3.051-1.884v3.771h-.819V35.1c-.26.34-.654.553-1.19.553-1.058 0-1.886-.829-1.886-1.98 0-1.15.829-1.98 1.886-1.98.536 0 .93.213 1.19.553v-.46h.82zm-7.68 1.884c0 1.143.796 1.98 2.01 1.98.568 0 .947-.127 1.356-.45l-.394-.663c-.308.222-.63.34-.988.34-.654-.008-1.135-.481-1.135-1.207 0-.726.481-1.199 1.136-1.207.355 0 .678.118.987.34l.394-.663c-.41-.323-.788-.45-1.355-.45-1.215 0-2.011.836-2.011 1.98zm9.573-1.427c.213-.331.521-.553.994-.553v.001c.165 0 .402.032.584.103l-.253.773c-.163-.066-.337-.098-.513-.095-.536 0-.804.346-.804.97v2.113h-.82v-3.77h.812v.458zm-20.978-.158c-.394-.26-.938-.394-1.537-.394-.955 0-1.57.458-1.57 1.207 0 .614.458.993 1.3 1.112l.388.055c.45.063.662.181.662.394 0 .292-.299.458-.86.458-.567 0-.977-.181-1.253-.394l-.386.639c.45.331 1.018.489 1.633.489 1.088 0 1.719-.513 1.719-1.23 0-.663-.497-1.01-1.317-1.128l-.386-.056c-.355-.046-.64-.117-.64-.37 0-.276.269-.441.718-.441.482 0 .947.181 1.176.323l.354-.663h-.001zm9.584.159c.212-.331.52-.552.993-.552v-.001c.165 0 .402.032.583.103l-.252.773c-.163-.066-.337-.098-.513-.095-.536 0-.804.346-.804.97v2.113h-.82v-3.77h.813v.459zm-6.002-.458h-1.34v-1.144h-.83v1.144h-.764v.749h.765v1.72c0 .874.34 1.395 1.309 1.395.356 0 .765-.11 1.025-.292l-.236-.702c-.245.142-.513.214-.726.214-.41 0-.544-.253-.544-.631v-1.704h1.34v-.75zM8.357 33.19v2.366l-.83-.002v-2.098c0-.639-.268-.993-.828-.993-.544 0-.922.347-.922 1.002v2.09h-.829v-2.098c0-.64-.275-.994-.82-.994-.56 0-.923.348-.923 1.002v2.09H2.38v-3.77h.82v.467c.308-.442.701-.56 1.104-.56.576 0 .986.252 1.246.67.347-.528.844-.678 1.325-.67.915.008 1.483.607 1.483 1.498z" clip-rule="evenodd"/>
    <path fill="#F79410" fill-rule="evenodd" d="M46.1 22.467v1.295h-.152v-.978l-.233.845h-.159l-.233-.842v.975h-.154v-1.295h.217l.248.889.25-.889h.216zm-1.37.222v1.073h-.153V22.69H44.3v-.219h.707v.219h-.277z" clip-rule="evenodd"/>
    <path fill="#FF5F00" d="M29.181 25.382H16.76V3.058h12.423v22.324z"/>
    <path fill="#EB001B" d="M17.547 14.22c0-4.528 2.12-8.562 5.422-11.161-2.5-1.971-5.59-3.04-8.773-3.036C6.356.023 0 6.379 0 14.221c0 7.84 6.355 14.197 14.196 14.197 3.183.005 6.274-1.064 8.773-3.035-3.301-2.6-5.422-6.634-5.422-11.162z"/>
    <path fill="#F79E1B" d="M45.94 14.22c0 7.842-6.355 14.198-14.196 14.198-3.183.005-6.274-1.065-8.774-3.035 3.302-2.6 5.423-6.634 5.423-11.162 0-4.53-2.12-8.563-5.423-11.162 2.5-1.971 5.591-3.04 8.774-3.036 7.84 0 14.196 6.356 14.196 14.198"/>
</svg>
